<svg width="20" height="21" viewBox="0 0 20 21" fill="none" xmlns="http://www.w3.org/2000/svg">
<g id="Iconsax/Bold/infocircle">
<path id="Vector" d="M9.99984 1.88306C5.40817 1.88306 1.6665 5.62472 1.6665 10.2164C1.6665 14.8081 5.40817 18.5497 9.99984 18.5497C14.5915 18.5497 18.3332 14.8081 18.3332 10.2164C18.3332 5.62472 14.5915 1.88306 9.99984 1.88306ZM9.37484 6.88306C9.37484 6.54139 9.65817 6.25806 9.99984 6.25806C10.3415 6.25806 10.6248 6.54139 10.6248 6.88306V11.0497C10.6248 11.3914 10.3415 11.6747 9.99984 11.6747C9.65817 11.6747 9.37484 11.3914 9.37484 11.0497V6.88306ZM10.7665 13.8664C10.7248 13.9747 10.6665 14.0581 10.5915 14.1414C10.5082 14.2164 10.4165 14.2747 10.3165 14.3164C10.2165 14.3581 10.1082 14.3831 9.99984 14.3831C9.8915 14.3831 9.78317 14.3581 9.68317 14.3164C9.58317 14.2747 9.4915 14.2164 9.40817 14.1414C9.33317 14.0581 9.27484 13.9747 9.23317 13.8664C9.19037 13.7662 9.16771 13.6586 9.1665 13.5497C9.1665 13.4414 9.1915 13.3331 9.23317 13.2331C9.27484 13.1331 9.33317 13.0414 9.40817 12.9581C9.4915 12.8831 9.58317 12.8247 9.68317 12.7831C9.88605 12.6997 10.1136 12.6997 10.3165 12.7831C10.4165 12.8247 10.5082 12.8831 10.5915 12.9581C10.6665 13.0414 10.7248 13.1331 10.7665 13.2331C10.8082 13.3331 10.8332 13.4414 10.8332 13.5497C10.8332 13.6581 10.8082 13.7664 10.7665 13.8664Z" fill="#1BBDE4"/>
</g>
</svg>
