<svg width="21" height="24" viewBox="0 0 21 24" fill="none" xmlns="http://www.w3.org/2000/svg">
<g clip-path="url(#clip0_41_287)">
<path d="M6.53012 8.0981L6.67012 8.0861C6.72081 8.0805 6.76929 8.06228 6.81112 8.0331L6.81012 8.0341C6.94412 8.4961 7.10812 8.9821 7.31312 9.4911C7.57612 10.1571 7.83512 10.7041 8.12512 11.2321L8.08512 11.1521C8.06112 11.5161 8.03212 11.8901 7.99412 12.2521C7.97747 12.4657 7.93413 12.6763 7.86512 12.8791L7.87012 12.8611C7.85812 12.8661 7.84112 14.9411 7.84112 14.9411C7.84149 15.5849 8.05849 16.2099 8.45719 16.7155C8.85589 17.221 9.41309 17.5777 10.0391 17.7281L10.0591 17.7321C10.0869 17.6599 10.1359 17.5978 10.1996 17.5539C10.2633 17.51 10.3388 17.4864 10.4161 17.4861H10.9901C11.0668 17.4871 11.1414 17.5107 11.2047 17.554C11.2681 17.5972 11.3172 17.6581 11.3461 17.7291L11.3471 17.7321C11.9785 17.5862 12.542 17.2314 12.9466 16.7252C13.3511 16.219 13.5729 15.5911 13.5761 14.9431C13.5761 14.9431 13.5411 12.8761 13.5231 12.8621C13.4635 12.6688 13.4227 12.4702 13.4011 12.2691L13.4001 12.2541C13.3651 11.8901 13.3421 11.5251 13.3091 11.1541C13.5561 10.7081 13.8151 10.1621 14.0431 9.5991L14.0811 9.4931C14.2861 8.9841 14.4451 8.4991 14.5841 8.0361C14.6252 8.06528 14.673 8.08352 14.7231 8.0891H14.7241L14.8651 8.1011C15.0351 8.1191 15.1851 7.9791 15.1991 7.7621L15.3511 5.8311V5.8291C15.351 5.7514 15.3227 5.67638 15.2713 5.61805C15.22 5.55972 15.1492 5.52206 15.0721 5.5121H15.0531C15.1863 4.50659 15.1038 3.48425 14.8111 2.5131L14.8241 2.5641C14.5421 1.93782 14.1131 1.38883 13.5736 0.963706C13.0341 0.538584 12.4 0.249884 11.7251 0.122104L11.6991 0.118104C11.3719 0.0525016 11.0397 0.0150314 10.7061 0.00610352H10.6851C10.3362 0.0123526 9.98858 0.0518648 9.64712 0.124104L9.68312 0.118104C9.0086 0.243304 8.37389 0.528262 7.83211 0.949123C7.29033 1.36998 6.85725 1.9145 6.56912 2.5371L6.55812 2.5641C6.27022 3.53151 6.19348 4.54947 6.33312 5.5491L6.32912 5.5121C6.25185 5.52047 6.18037 5.55701 6.12835 5.61475C6.07632 5.67249 6.04741 5.74738 6.04712 5.8251V5.8321L6.19912 7.7631C6.21312 7.9851 6.36512 8.1191 6.52912 8.1011L6.53012 8.0981Z" fill="white"/>
<path d="M21.4161 20.878C21.3461 17.838 21.0421 17.15 20.8781 16.684C20.8131 16.497 20.7601 15.233 18.6721 14.413C17.3921 13.909 15.7401 13.899 14.3421 13.308V14.952C14.3406 15.7948 14.0461 16.6109 13.509 17.2604C12.9719 17.9099 12.2256 18.3524 11.3981 18.512L11.3751 18.516C11.3601 18.6047 11.3145 18.6853 11.2461 18.7438C11.1778 18.8023 11.091 18.8349 11.0011 18.836H10.9831V20.076C10.9831 20.6579 11.2142 21.216 11.6257 21.6274C12.0372 22.0389 12.5952 22.27 13.1771 22.27C13.759 22.27 14.317 22.0389 14.7285 21.6274C15.1399 21.216 15.3711 20.6579 15.3711 20.076V19.21C15.0691 19.1657 14.7938 19.0123 14.5972 18.7787C14.4007 18.5452 14.2966 18.2477 14.3046 17.9426C14.3126 17.6374 14.4321 17.3458 14.6406 17.1228C14.8491 16.8999 15.132 16.7611 15.4359 16.7326C15.7398 16.7042 16.0436 16.7882 16.2898 16.9686C16.5361 17.149 16.7076 17.4134 16.772 17.7118C16.8365 18.0101 16.7893 18.3218 16.6395 18.5877C16.4897 18.8537 16.2476 19.0555 15.9591 19.155L15.9501 19.158V20.123C15.9501 20.8587 15.6578 21.5643 15.1376 22.0845C14.6174 22.6048 13.9118 22.897 13.1761 22.897C12.4404 22.897 11.7348 22.6048 11.2146 22.0845C10.6944 21.5643 10.4021 20.8587 10.4021 20.123V20.073V20.075V18.824C10.3165 18.8182 10.2353 18.7836 10.1718 18.7259C10.1083 18.6682 10.0661 18.5907 10.0521 18.506V18.504C9.22363 18.346 8.47589 17.9049 7.93697 17.2561C7.39805 16.6074 7.10149 15.7914 7.09809 14.948V13.291C5.69409 13.894 4.03209 13.906 2.74509 14.411C0.65109 15.23 0.603091 16.491 0.539091 16.681C0.379091 17.149 0.0710906 17.834 0.00109059 20.876C-0.0109094 21.276 0.00109065 21.889 1.20709 22.425C3.83309 23.455 7.21609 23.775 10.5511 24.005H10.8711C14.2131 23.777 17.5911 23.458 20.2151 22.425C21.4161 21.892 21.4271 21.282 21.4161 20.878ZM6.73509 19.638H5.48909V20.889H4.59909V19.642H3.35309V18.752H4.59909V17.506H5.48909V18.752H6.73509V19.638Z" fill="white"/>
<path d="M16.2249 17.965C16.2248 17.7866 16.1538 17.6145 16.0275 17.4884C15.9013 17.3622 15.7301 17.2914 15.5517 17.2915C15.3732 17.2916 15.2021 17.3625 15.0759 17.4887C14.9498 17.6149 14.8789 17.7861 14.8789 17.9645C14.8789 18.143 14.9498 18.3141 15.0759 18.4403C15.2021 18.5665 15.3732 18.6374 15.5517 18.6375C15.7301 18.6376 15.9013 18.5668 16.0275 18.4407C16.1538 18.3145 16.2248 18.1435 16.2249 17.965Z" fill="white"/>
</g>
<defs>
<clipPath id="clip0_41_287">
<rect width="21" height="24" fill="white"/>
</clipPath>
</defs>
</svg>
