<svg width="60" height="46" viewBox="0 0 60 46" fill="none" xmlns="http://www.w3.org/2000/svg">
<g clip-path="url(#clip0_27_274)">
<path d="M57.4997 7.44287C58.8843 9.39207 59.2475 11.4656 59.4846 13.5871C60.04 18.5252 60.1468 23.5034 59.8037 28.4608C59.6693 30.3972 59.4888 32.3282 59.1565 34.2395C58.9013 35.7088 58.2658 37.0349 57.4254 38.2784C57.0706 38.2525 56.9025 37.9613 56.6833 37.7692C53.4926 34.974 50.3067 32.1726 47.1255 29.3651C46.6438 28.9391 46.1295 28.6107 45.4525 28.7276C44.0288 28.9728 43.4998 30.5626 44.4905 31.7151C46.0586 33.5392 47.6662 35.3308 49.2541 37.1371C50.706 38.7866 52.1587 40.4368 53.6691 42.1552C52.3214 43.19 50.8756 43.9444 49.268 44.3557C47.0744 44.9169 44.8107 44.9401 42.5719 45.0981C36.4013 45.533 30.2221 45.6791 24.038 45.4389C19.8263 45.2747 15.6111 45.1194 11.4346 44.5095C9.64728 44.248 7.44557 43.1288 6.34917 42.0932C8.08575 40.118 9.82337 38.1417 11.562 36.1643C12.8788 34.6686 14.2002 33.1791 15.5084 31.6772C15.9848 31.1311 16.1537 30.4995 15.8593 29.805C15.5964 29.1854 15.1088 28.8213 14.4492 28.7207C13.7374 28.6138 13.225 29.0119 12.7293 29.4499C9.93697 31.9151 7.1422 34.3776 4.34497 36.8374C3.78496 37.3304 3.21952 37.8172 2.62737 38.3323C1.51935 36.7572 0.910922 35.0609 0.67313 33.2104C-0.221516 26.3031 -0.223078 19.3094 0.668482 12.4017C0.893107 10.6589 1.41362 9.03229 2.40352 7.56564C2.72109 7.65084 2.86826 7.90994 3.0619 8.1028C8.88149 13.9172 14.6999 19.7328 20.5172 25.5496C25.9725 30.989 33.9765 31.0142 39.448 25.5837C45.2689 19.8064 51.07 14.0093 56.8514 8.19227C57.0691 7.97539 57.2561 7.72636 57.4997 7.44287Z" fill="white"/>
<path d="M5.80518 3.78419C8.06111 1.92987 10.604 0.976381 13.4734 0.742849C19.5596 0.247125 25.6516 -0.0634769 31.7582 0.00700886C37.138 0.0705235 42.5112 0.316836 47.8608 0.905895C50.2344 1.1677 52.2828 2.25442 54.1475 3.7168C54.0836 4.03709 53.823 4.18155 53.6321 4.37519C47.7823 10.2325 41.9303 16.0863 36.0761 21.9366C32.4221 25.5852 27.5717 25.5771 23.9126 21.9215C18.0574 16.0722 12.205 10.2201 6.35551 4.36512C6.17464 4.18387 6.00269 3.9941 5.80518 3.78419Z" fill="white"/>
</g>
<defs>
<clipPath id="clip0_27_274">
<rect width="60" height="45.5559" fill="white"/>
</clipPath>
</defs>
</svg>
