<svg width="24" height="24" viewBox="0 0 24 24" fill="none" xmlns="http://www.w3.org/2000/svg">
<path d="M8.79995 11.2001C7.73909 11.2001 6.72167 10.7787 5.97152 10.0285C5.22138 9.27838 4.79995 8.26096 4.79995 7.2001V4.0001C4.79995 3.78792 4.88424 3.58444 5.03427 3.43441C5.1843 3.28438 5.38778 3.2001 5.59995 3.2001H6.39995C6.61212 3.2001 6.81561 3.11581 6.96564 2.96578C7.11567 2.81575 7.19995 2.61227 7.19995 2.4001C7.19995 2.18792 7.11567 1.98444 6.96564 1.83441C6.81561 1.68438 6.61212 1.6001 6.39995 1.6001H5.59995C4.96343 1.6001 4.35298 1.85295 3.90289 2.30304C3.45281 2.75313 3.19995 3.36358 3.19995 4.0001V7.2001C3.20098 8.10389 3.42137 8.99392 3.84219 9.79376C4.26301 10.5936 4.87169 11.2793 5.61595 11.7921C6.33101 12.4225 6.91092 13.1913 7.32066 14.052C7.7304 14.9128 7.96148 15.8476 7.99995 16.8001C7.99995 18.2853 8.58995 19.7097 9.64015 20.7599C10.6904 21.8101 12.1147 22.4001 13.6 22.4001C15.0852 22.4001 16.5095 21.8101 17.5597 20.7599C18.61 19.7097 19.2 18.2853 19.2 16.8001V15.8881C19.9541 15.6934 20.6113 15.2303 21.0484 14.5857C21.4856 13.9411 21.6726 13.1591 21.5744 12.3865C21.4763 11.6138 21.0997 10.9035 20.5153 10.3886C19.9309 9.87377 19.1788 9.58971 18.4 9.58971C17.6211 9.58971 16.869 9.87377 16.2846 10.3886C15.7002 10.9035 15.3236 11.6138 15.2255 12.3865C15.1273 13.1591 15.3143 13.9411 15.7515 14.5857C16.1886 15.2303 16.8458 15.6934 17.6 15.8881V16.8001C17.6 17.861 17.1785 18.8784 16.4284 19.6285C15.6782 20.3787 14.6608 20.8001 13.6 20.8001C12.5391 20.8001 11.5217 20.3787 10.7715 19.6285C10.0214 18.8784 9.59995 17.861 9.59995 16.8001C9.64045 15.8464 9.87402 14.9109 10.2865 14.0501C10.6991 13.1893 11.282 12.4211 12 11.7921C12.7413 11.2776 13.3468 10.591 13.7648 9.79131C14.1828 8.99158 14.4007 8.10247 14.4 7.2001V4.0001C14.4 3.36358 14.1471 2.75313 13.697 2.30304C13.2469 1.85295 12.6365 1.6001 12 1.6001H11.2C10.9878 1.6001 10.7843 1.68438 10.6343 1.83441C10.4842 1.98444 10.4 2.18792 10.4 2.4001C10.4 2.61227 10.4842 2.81575 10.6343 2.96578C10.7843 3.11581 10.9878 3.2001 11.2 3.2001H12C12.2121 3.2001 12.4156 3.28438 12.5656 3.43441C12.7157 3.58444 12.8 3.78792 12.8 4.0001V7.2001C12.8 7.72538 12.6965 8.24553 12.4955 8.73083C12.2945 9.21613 11.9998 9.65709 11.6284 10.0285C11.2569 10.4 10.816 10.6946 10.3307 10.8956C9.84538 11.0966 9.32524 11.2001 8.79995 11.2001ZM18.4 14.4001C17.9756 14.4001 17.5686 14.2315 17.2686 13.9315C16.9685 13.6314 16.8 13.2244 16.8 12.8001C16.8 12.3758 16.9685 11.9688 17.2686 11.6687C17.5686 11.3687 17.9756 11.2001 18.4 11.2001C18.8243 11.2001 19.2313 11.3687 19.5313 11.6687C19.8314 11.9688 20 12.3758 20 12.8001C20 13.2244 19.8314 13.6314 19.5313 13.9315C19.2313 14.2315 18.8243 14.4001 18.4 14.4001Z" fill="white"/>
</svg>
