<svg width="20" height="18" viewBox="0 0 20 18" fill="none" xmlns="http://www.w3.org/2000/svg">
<path d="M5.04756 3.56802H6.5226V2.33202H13.4288V3.59394H14.9036V1.42314H14.9032C14.9018 1.26613 14.8387 1.11596 14.7274 1.00518C14.6161 0.894397 14.4657 0.831925 14.3087 0.831299H5.64132C5.483 0.831362 5.33118 0.894301 5.21925 1.00628C5.10732 1.11825 5.04444 1.27009 5.04444 1.42842C5.04444 1.43922 5.04708 1.44906 5.04756 1.45986V3.56802ZM3.94524 17.1688H16.0499V4.88106H3.94524V17.1688ZM6.34164 10.1642C6.34297 10.1157 6.36282 10.0696 6.3971 10.0353C6.43138 10.001 6.4775 9.98119 6.52596 9.97986L8.98236 9.9801V7.5237C8.98236 7.42194 9.06492 7.33938 9.16668 7.33938H10.8875C10.9892 7.33938 11.0718 7.42194 11.0718 7.52394V9.9801H13.5284C13.6302 9.9801 13.7128 10.0627 13.7128 10.1644V11.8852C13.7128 11.9094 13.7081 11.9334 13.6989 11.9558C13.6896 11.9782 13.676 11.9986 13.6589 12.0157C13.6418 12.0328 13.6214 12.0464 13.5991 12.0556C13.5767 12.0649 13.5527 12.0696 13.5284 12.0695H11.0718V14.5262C11.0718 14.5504 11.0671 14.5744 11.0578 14.5968C11.0486 14.6191 11.035 14.6395 11.0179 14.6566C11.0008 14.6737 10.9804 14.6873 10.9581 14.6965C10.9357 14.7058 10.9117 14.7105 10.8875 14.7105H9.16692C9.14271 14.7105 9.11872 14.7058 9.09635 14.6965C9.07397 14.6873 9.05364 14.6737 9.03652 14.6566C9.01939 14.6395 9.00582 14.6191 8.99657 14.5968C8.98731 14.5744 8.98257 14.5504 8.9826 14.5262V12.0693H6.52596C6.50175 12.0693 6.47776 12.0646 6.45539 12.0553C6.43301 12.0461 6.41268 12.0325 6.39556 12.0154C6.37843 11.9983 6.36486 11.9779 6.35561 11.9556C6.34635 11.9332 6.34161 11.9092 6.34164 11.885V10.1642ZM1.32036 4.8813C1.19438 4.88124 1.06962 4.906 0.953204 4.95416C0.836792 5.00233 0.731012 5.07296 0.641906 5.16202C0.5528 5.25109 0.482115 5.35683 0.433888 5.47322C0.385662 5.58961 0.36084 5.71435 0.36084 5.84034C0.36084 5.85306 0.36396 5.86482 0.36468 5.8773V16.1829C0.36444 16.1913 0.36228 16.199 0.36228 16.2074C0.36247 16.4616 0.463458 16.7054 0.643103 16.8852C0.822747 17.0651 1.06639 17.1664 1.3206 17.1669V17.1688H2.75076V4.88106L1.32036 4.8813ZM19.6384 16.2014V5.8353H19.6338C19.6324 5.58184 19.5308 5.33922 19.3512 5.16039C19.1715 4.98157 18.9285 4.88107 18.675 4.88082H17.2448V17.1686H18.6712V17.1679C18.674 17.1679 18.6767 17.1686 18.6796 17.1686C18.8056 17.1686 18.9304 17.1438 19.0468 17.0956C19.1632 17.0474 19.269 16.9767 19.3581 16.8876C19.4472 16.7985 19.5179 16.6927 19.5661 16.5763C19.6143 16.4599 19.6391 16.3351 19.6391 16.2091C19.6391 16.2067 19.6384 16.204 19.6384 16.2014Z" fill="white"/>
</svg>
