<svg width="23" height="23" viewBox="0 0 23 23" fill="none" xmlns="http://www.w3.org/2000/svg">
<g id="ci:help-circle-outline">
<path id="Vector" d="M11.4998 21.0835C6.20984 21.0778 1.92225 16.7902 1.9165 11.5002V11.3085C2.02192 6.04248 6.35838 1.84785 11.6244 1.91685C16.8924 1.98777 21.1158 6.29548 21.0813 11.5625C21.0468 16.8304 16.7678 21.0835 11.4998 21.0835ZM11.4845 19.1669H11.4998C13.5325 19.1648 15.4812 18.3557 16.9174 16.9173C18.3536 15.4789 19.1599 13.529 19.1588 11.4964C19.1578 9.4637 18.3496 7.51463 16.912 6.07768C15.4743 4.64073 13.5248 3.83353 11.4922 3.83353C9.45951 3.83353 7.51004 4.64073 6.07237 6.07768C4.63471 7.51463 3.82652 9.4637 3.82551 11.4964C3.82449 13.529 4.63072 15.4789 6.06695 16.9173C7.50319 18.3557 9.45184 19.1648 11.4845 19.1669ZM12.4582 17.2502H10.5415V15.3335H12.4582V17.2502ZM12.4582 14.3752H10.5415C10.5266 13.7623 10.6761 13.1567 10.9744 12.6211C11.2727 12.0856 11.7089 11.6396 12.2378 11.3296C12.8703 10.8447 13.4165 10.4269 13.4165 9.58352C13.4165 9.07519 13.2146 8.58768 12.8551 8.22823C12.4957 7.86879 12.0082 7.66685 11.4998 7.66685C10.9915 7.66685 10.504 7.86879 10.1446 8.22823C9.78511 8.58768 9.58317 9.07519 9.58317 9.58352H7.6665V9.49727C7.67794 8.48061 8.09278 7.51013 8.81976 6.79933C9.54673 6.08852 10.5263 5.69563 11.543 5.70706C12.5596 5.7185 13.5301 6.13334 14.2409 6.86031C14.9517 7.58729 15.3446 8.56686 15.3332 9.58352C15.2993 10.0935 15.1465 10.5884 14.8868 11.0285C14.6272 11.4687 14.2681 11.842 13.8382 12.1183C13.4494 12.3623 13.1225 12.6931 12.8831 13.0847C12.6437 13.4762 12.4982 13.918 12.4582 14.3752Z" fill="white"/>
</g>
</svg>
