<svg width="21" height="21" viewBox="0 0 21 21" fill="none" xmlns="http://www.w3.org/2000/svg">
<g clip-path="url(#clip0_445_885)">
<path d="M8.81112 2.46786L2.74737 7.32411C2.06487 7.86661 1.62737 9.01286 1.77612 9.87036L2.93987 16.8354C3.14987 18.0779 4.33987 19.0841 5.59987 19.0841H15.3999C16.6511 19.0841 17.8499 18.0691 18.0599 16.8354L19.2236 9.87036C19.3636 9.01286 18.9261 7.86661 18.2524 7.32411L12.1886 2.47661C11.2524 1.72411 9.73862 1.72411 8.81112 2.46786Z" stroke="white" stroke-width="2" stroke-linecap="round" stroke-linejoin="round"/>
<path d="M10.5 13.5625C11.0802 13.5625 11.6366 13.332 12.0468 12.9218C12.457 12.5116 12.6875 11.9552 12.6875 11.375C12.6875 10.7948 12.457 10.2384 12.0468 9.8282C11.6366 9.41797 11.0802 9.1875 10.5 9.1875C9.91984 9.1875 9.36344 9.41797 8.9532 9.8282C8.54297 10.2384 8.3125 10.7948 8.3125 11.375C8.3125 11.9552 8.54297 12.5116 8.9532 12.9218C9.36344 13.332 9.91984 13.5625 10.5 13.5625Z" stroke="white" stroke-width="2" stroke-linecap="round" stroke-linejoin="round"/>
</g>
<defs>
<clipPath id="clip0_445_885">
<rect width="21" height="21" fill="white"/>
</clipPath>
</defs>
</svg>
