<svg width="53" height="65" viewBox="0 0 53 65" fill="none" xmlns="http://www.w3.org/2000/svg">
<g clip-path="url(#clip0_27_26)">
<path d="M26.2559 54.2676C19.0432 54.2676 11.8305 54.2676 4.61783 54.2676C1.93766 54.2676 0.768761 53.1328 0.708235 50.428C0.659058 48.2869 0.668515 46.1439 0.708235 43.9971C0.747955 41.8976 1.84309 40.7476 3.94071 40.5433C4.6273 40.4771 5.32146 40.4563 6.02129 40.4563C19.849 40.4563 33.678 40.4563 47.5082 40.4563C47.7598 40.4563 48.0132 40.445 48.2648 40.4563C51.0792 40.6171 52.2368 41.7633 52.3106 44.5872C52.3635 46.5392 52.3635 48.4937 52.3106 50.4507C52.2406 52.9417 50.8163 54.2941 48.2856 54.3263C46.3336 54.3527 44.3798 54.3263 42.4221 54.3263H26.2559V54.2676ZM26.6078 46.3236C25.7793 46.3047 25.4143 46.6886 25.4029 47.3506C25.3916 48.0126 25.592 48.6255 26.394 48.7257C26.9615 48.7976 27.5459 48.1583 27.5554 47.4868C27.5592 46.7662 27.1827 46.3898 26.6002 46.3255L26.6078 46.3236ZM43.4132 47.4736C43.4359 46.7643 42.9328 46.2971 42.197 46.2895C41.5577 46.2895 41.2759 46.6319 41.2797 47.2352C41.2797 47.8689 41.3705 48.4571 42.2254 48.4723C42.9271 48.4798 43.3414 48.1677 43.4057 47.4755L43.4132 47.4736ZM34.3343 48.4647C35.0701 48.4647 35.4692 48.0864 35.4692 47.3941C35.4692 46.7529 35.1022 46.3463 34.4213 46.3236C33.6855 46.3009 33.2997 46.7416 33.2865 47.4074C33.2732 48.0732 33.6666 48.4363 34.3343 48.4666V48.4647ZM10.4208 46.3841C9.85336 46.3519 9.40509 46.8097 9.43346 47.4509C9.45994 48.0542 10.069 48.3966 10.6383 48.4382C11.2455 48.4817 11.6313 48.0599 11.6521 47.4376C11.6748 46.7454 11.2776 46.403 10.4208 46.3784V46.3841ZM17.4778 47.2844C17.4778 47.9218 18.0452 48.6765 18.5634 48.6084C19.1971 48.5347 19.6056 48.1204 19.6151 47.4736C19.6151 46.787 19.2198 46.3387 18.5162 46.3236C17.9336 46.3236 17.4796 46.5865 17.4778 47.2787V47.2844Z" fill="white"/>
<path d="M6.24674 38.1903C5.6585 35.2038 6.56829 33.4447 9.27305 32.2663C10.0195 31.9361 10.7903 31.6642 11.5787 31.453C12.3523 31.2506 12.6304 30.8402 12.6247 30.042C12.585 25.6293 12.5869 21.2165 12.5793 16.8019C12.5793 14.343 12.5585 11.8974 13.3359 9.51039C14.9568 4.48104 20.2605 0.55817 25.5489 0.510884C29.5891 0.473055 33.3039 1.40176 36.3131 4.25595C39.1711 6.97396 40.2852 10.4637 40.3211 14.3203C40.3646 19.5804 40.3476 24.8405 40.3211 30.1006C40.3211 30.8837 40.4516 31.2639 41.3349 31.3887C42.744 31.5778 44.0775 32.0829 45.1575 33.091C46.4475 34.2845 46.9582 35.7769 46.8976 37.5056C46.8806 37.9728 46.7085 38.2168 46.2167 38.1941C46.0276 38.1941 45.8384 38.1941 45.6493 38.1941H6.24674V38.1903ZM37.8338 31.3471C37.8679 30.878 37.919 30.5035 37.919 30.129C37.919 24.6766 37.919 19.2236 37.919 13.7699C37.919 10.3388 36.489 7.56786 33.8921 5.38324C31.2024 3.11351 28.0286 2.67282 24.6637 2.98491C19.5133 3.46155 15.2065 7.84403 15.0817 13.0096C14.9474 18.7425 15.006 24.4793 14.9701 30.2217C14.9701 31.0672 15.3313 31.3868 16.1768 31.3755C18.6678 31.3414 21.157 31.3622 23.648 31.3622L37.8338 31.3471Z" fill="white"/>
<path d="M26.6094 56.4428C32.9117 56.4428 39.2159 56.4541 45.5238 56.4296C46.4695 56.4296 46.827 56.7265 46.9121 57.712C47.262 61.7464 44.7029 64.6006 40.642 64.6081C31.2188 64.6271 21.7963 64.646 12.3744 64.6649C8.45153 64.6649 5.58788 61.561 5.96617 57.7782C6.07209 56.7152 6.31988 56.5052 7.51717 56.5052H26.6207L26.6094 56.4428Z" fill="white"/>
</g>
<defs>
<clipPath id="clip0_27_26">
<rect width="51.6667" height="64.1521" fill="white" transform="translate(0.666504 0.512817)"/>
</clipPath>
</defs>
</svg>
