<svg width="24" height="24" viewBox="0 0 24 24" fill="none" xmlns="http://www.w3.org/2000/svg">
<path d="M14.9402 8.03998C15.1602 8.47998 15.2902 8.97998 15.2902 9.50998C15.2802 11.28 13.8902 12.73 12.1302 12.78C12.0505 12.77 11.9699 12.77 11.8902 12.78C11.0422 12.7514 10.2384 12.3944 9.64876 11.7842C9.0591 11.174 8.72973 10.3585 8.73021 9.50998C8.73021 7.69998 10.1902 6.22998 12.0102 6.22998M18.7422 19.379C16.9045 21.0681 14.4982 22.0034 12.0022 21.999C9.40221 21.999 7.04221 21.009 5.26221 19.379C5.36221 18.439 5.96221 17.519 7.03221 16.799C9.77221 14.979 14.2522 14.979 16.9722 16.799C18.0422 17.519 18.6422 18.439 18.7422 19.379Z" stroke="#1D1D1D" stroke-width="1.5" stroke-linecap="round" stroke-linejoin="round"/>
<path d="M4 6C2.75 7.67 2 9.75 2 12C2 17.52 6.48 22 12 22C17.52 22 22 17.52 22 12C22 6.48 17.52 2 12 2C10.57 2 9.2 2.3 7.97 2.85" stroke="#1D1D1D" stroke-width="1.5" stroke-linecap="round" stroke-linejoin="round"/>
</svg>
