<svg width="22" height="22" viewBox="0 0 22 22" fill="none" xmlns="http://www.w3.org/2000/svg">
<path d="M11 13.6673C11.7073 13.6673 12.3856 13.3864 12.8857 12.8863C13.3858 12.3862 13.6667 11.7079 13.6667 11.0007C13.6667 10.2934 13.3858 9.61513 12.8857 9.11503C12.3856 8.61494 11.7073 8.33398 11 8.33398C10.2928 8.33398 9.61452 8.61494 9.11442 9.11503C8.61433 9.61513 8.33337 10.2934 8.33337 11.0007C8.33337 11.7079 8.61433 12.3862 9.11442 12.8863C9.61452 13.3864 10.2928 13.6673 11 13.6673Z" stroke="white" stroke-width="1.5" stroke-miterlimit="10" stroke-linecap="round" stroke-linejoin="round"/>
<path d="M2.11121 11.7837V10.2192C2.11121 9.2948 2.86676 8.53035 3.8001 8.53035C5.40898 8.53035 6.06676 7.39257 5.25787 5.99702C4.79565 5.19702 5.07121 4.15702 5.88009 3.6948L7.41787 2.8148C8.12009 2.39702 9.02676 2.64591 9.44454 3.34813L9.54232 3.51702C10.3423 4.91257 11.6579 4.91257 12.4668 3.51702L12.5645 3.34813C12.9823 2.64591 13.889 2.39702 14.5912 2.8148L16.129 3.6948C16.9379 4.15702 17.2134 5.19702 16.7512 5.99702C15.9423 7.39257 16.6001 8.53035 18.209 8.53035C19.1334 8.53035 19.8979 9.28591 19.8979 10.2192V11.7837C19.8979 12.7081 19.1423 13.4726 18.209 13.4726C16.6001 13.4726 15.9423 14.6104 16.7512 16.0059C17.2134 16.8148 16.9379 17.8459 16.129 18.3081L14.5912 19.1881C13.889 19.6059 12.9823 19.357 12.5645 18.6548L12.4668 18.4859C11.6668 17.0904 10.3512 17.0904 9.54232 18.4859L9.44454 18.6548C9.02676 19.357 8.12009 19.6059 7.41787 19.1881L5.88009 18.3081C5.49263 18.085 5.2095 17.7173 5.09285 17.2857C4.97619 16.8541 5.03554 16.3938 5.25787 16.0059C6.06676 14.6104 5.40898 13.4726 3.8001 13.4726C2.86676 13.4726 2.11121 12.7081 2.11121 11.7837Z" stroke="white" stroke-width="1.5" stroke-miterlimit="10" stroke-linecap="round" stroke-linejoin="round"/>
</svg>
