<svg width="16" height="16" viewBox="0 0 16 16" fill="none" xmlns="http://www.w3.org/2000/svg">
<g id="Iconsax/Bold/user">
<path id="Vector" d="M7.99994 7.99992C8.884 7.99992 9.73184 7.64873 10.357 7.02361C10.9821 6.39849 11.3333 5.55064 11.3333 4.66659C11.3333 3.78253 10.9821 2.93468 10.357 2.30956C9.73184 1.68444 8.884 1.33325 7.99994 1.33325C7.11589 1.33325 6.26804 1.68444 5.64292 2.30956C5.0178 2.93468 4.66661 3.78253 4.66661 4.66659C4.66661 5.55064 5.0178 6.39849 5.64292 7.02361C6.26804 7.64873 7.11589 7.99992 7.99994 7.99992ZM7.99994 9.66659C4.65994 9.66659 1.93994 11.9066 1.93994 14.6666C1.93994 14.8533 2.08661 14.9999 2.27327 14.9999H13.7266C13.9133 14.9999 14.0599 14.8533 14.0599 14.6666C14.0599 11.9066 11.3399 9.66659 7.99994 9.66659Z" fill="#1BBDE4"/>
</g>
</svg>
